<svg width="245" height="272" viewBox="0 0 245 272" fill="none" xmlns="http://www.w3.org/2000/svg">
<path fill-rule="evenodd" clip-rule="evenodd" d="M20.6416 0.480207C2.8376 6.04321 -4.6664 39.7842 2.9736 79.9192C10.3886 118.871 32.2916 159.605 59.3036 184.678C62.5806 187.72 65.5676 190.612 65.9426 191.105C66.6826 192.081 67.8116 201.206 69.3516 218.662C70.2486 228.829 70.8466 235.158 72.2966 249.828C73.5846 262.864 75.4256 266.597 82.2106 269.938L84.7756 271.201H122.48C164.833 271.201 162.014 271.389 166.137 268.279C170.289 265.146 171.477 261.976 172.069 252.451C172.296 248.798 172.826 242.734 173.247 238.974C173.668 235.214 174.287 228.623 174.621 224.326C175.21 216.758 176.478 206.371 177.745 198.74C178.083 196.699 178.45 194.474 178.56 193.796C178.71 192.874 179.423 192.002 181.386 190.339C193.113 180.411 207.366 162.301 217.046 145.029C241.444 101.498 251.134 46.9192 239.613 17.9172C233.872 3.46521 221.435 -4.73479 217.06 3.04821C215.924 5.06921 215.868 6.61221 216.532 17.4142C218.019 41.6002 215.12 68.4612 209.038 86.8282C208.272 89.1422 207.645 91.1912 207.645 91.3812C207.645 92.1942 203.552 102.339 199.957 110.435C198.568 113.563 196.49 118.496 195.34 121.396C183.751 150.615 175.52 160.91 150.223 177.828C130.317 191.14 125.816 196.094 125.895 204.599C125.981 213.776 135.178 231.609 147.596 246.68C150.252 249.902 150.254 250.247 147.635 251.187C130.873 257.2 113.189 248.979 96.1626 227.256C77.7806 203.805 73.8776 191.238 80.5526 177C81.5796 174.81 85.9916 168.587 87.2956 167.49C88.3486 166.603 90.8476 163.493 90.8476 163.068C90.8476 162.775 89.2216 161.387 87.2346 159.984C58.4646 139.67 32.5146 91.5432 28.9356 51.8652C27.4136 34.9932 27.2506 23.5642 28.3856 13.2352C29.2726 5.1592 29.2706 4.92621 28.2756 3.07821C26.7266 0.201206 24.2406 -0.644793 20.6416 0.480207ZM37.1856 28.6352C36.3846 30.7222 37.3326 44.0832 38.9296 53.2112C45.1256 88.6432 59.2536 109.491 85.9206 122.554C109.106 133.911 132.965 131.941 163.309 116.164C185.857 104.439 193.842 94.9282 200.644 71.6912C204.995 56.8282 206.459 49.4132 207.3 37.9812C208.058 27.6742 207.045 25.9272 203.843 32.0182C194.514 49.7642 173.791 81.4182 163.637 93.4312C151.281 108.051 143.304 114.661 130.592 120.815C122.546 124.71 121.846 124.876 118.186 123.765C102.486 118.996 84.7326 101.816 65.2816 72.5682C56.4646 59.3092 49.6746 48.0552 40.1816 30.9682C38.6616 28.2332 37.6446 27.4402 37.1856 28.6352ZM118.941 54.2342C99.7096 57.0632 90.0866 77.9242 99.4316 96.5272C108.817 115.209 138.208 114.539 147.146 95.4402C156.111 76.2802 146.06 56.4432 126.267 54.2362C122.136 53.7752 122.059 53.7752 118.941 54.2342ZM187.012 113.323C183.804 117.964 168.654 129.209 165.61 129.209C165.494 129.209 164.225 129.886 162.791 130.715C159.324 132.717 153.575 135.728 144.559 140.263C123.221 150.995 114.791 156.417 106.465 164.763C81.9966 189.293 85.1446 218.541 113.895 233.794C122.982 238.615 127.295 239.962 125.48 237.412C116.871 225.316 114.93 220.57 114.937 211.63C114.947 198.387 123.193 188.072 146.317 172.377C158.84 163.876 161.044 162.164 166.658 156.566C177.878 145.382 188.286 127.026 189.112 116.967C189.22 115.643 189.393 113.637 189.496 112.509C189.743 109.793 189.367 109.916 187.012 113.323Z" fill="#FC5D35"/>
</svg>
